<mxfile host="app.diagrams.net" modified="2023-05-18T02:52:58.757Z" agent="Mozilla/5.0 (Windows NT 10.0; Win64; x64) AppleWebKit/537.36 (KHTML, like Gecko) Chrome/113.0.0.0 Safari/537.36 Edg/113.0.1774.42" version="21.3.2" etag="qXYRjQYYxgIQD2OK91bR" type="github">
  <diagram name="第 1 页" id="YZ_h9r5KvifrltDYa2Vj">
    <mxGraphModel>
      <root>
        <mxCell id="0" />
        <mxCell id="1" parent="0" />
      </root>
    </mxGraphModel>
  </diagram>
</mxfile>
